<mxfile host="app.diagrams.net" agent="Mozilla/5.0 (Windows NT 10.0; Win64; x64) AppleWebKit/537.36 (KHTML, like Gecko) Chrome/128.0.0.0 Safari/537.36" version="24.7.16">
  <diagram name="Trang-1" id="oEAeZ4HT102jCSBtCd3f">
    <mxGraphModel grid="0" page="1" gridSize="10" guides="1" tooltips="1" connect="1" arrows="1" fold="1" pageScale="1" pageWidth="827" pageHeight="1169" math="0" shadow="0">
      <root>
        <mxCell id="0" />
        <mxCell id="1" parent="0" />
        <mxCell id="c__RsiPMxk6akUfEtOUZ-1" value="Giáo viên" style="shape=umlActor;verticalLabelPosition=bottom;verticalAlign=top;html=1;outlineConnect=0;" vertex="1" parent="1">
          <mxGeometry x="130" y="320" width="30" height="60" as="geometry" />
        </mxCell>
        <mxCell id="c__RsiPMxk6akUfEtOUZ-4" value="Đăng nhập" style="ellipse;whiteSpace=wrap;html=1;" vertex="1" parent="1">
          <mxGeometry x="218" y="16" width="120" height="80" as="geometry" />
        </mxCell>
        <mxCell id="c__RsiPMxk6akUfEtOUZ-5" value="Trang chủ" style="ellipse;whiteSpace=wrap;html=1;" vertex="1" parent="1">
          <mxGeometry x="234" y="154" width="120" height="80" as="geometry" />
        </mxCell>
        <mxCell id="c__RsiPMxk6akUfEtOUZ-6" value="Quản lý" style="ellipse;whiteSpace=wrap;html=1;" vertex="1" parent="1">
          <mxGeometry x="280" y="310" width="120" height="80" as="geometry" />
        </mxCell>
        <mxCell id="c__RsiPMxk6akUfEtOUZ-7" value="Nhận diện" style="ellipse;whiteSpace=wrap;html=1;" vertex="1" parent="1">
          <mxGeometry x="204" y="487" width="120" height="80" as="geometry" />
        </mxCell>
        <mxCell id="c__RsiPMxk6akUfEtOUZ-9" value="Chấm điểm trắc nghiệm" style="ellipse;whiteSpace=wrap;html=1;" vertex="1" parent="1">
          <mxGeometry x="15" y="496" width="120" height="80" as="geometry" />
        </mxCell>
        <mxCell id="c__RsiPMxk6akUfEtOUZ-10" value="Đăng xuất" style="ellipse;whiteSpace=wrap;html=1;" vertex="1" parent="1">
          <mxGeometry x="366" y="8" width="120" height="80" as="geometry" />
        </mxCell>
        <mxCell id="c__RsiPMxk6akUfEtOUZ-11" value="Đổi mật khẩu" style="ellipse;whiteSpace=wrap;html=1;" vertex="1" parent="1">
          <mxGeometry x="354" y="90" width="120" height="80" as="geometry" />
        </mxCell>
        <mxCell id="c__RsiPMxk6akUfEtOUZ-12" value="" style="endArrow=classic;html=1;rounded=0;entryX=0;entryY=0.5;entryDx=0;entryDy=0;" edge="1" parent="1" source="c__RsiPMxk6akUfEtOUZ-1" target="c__RsiPMxk6akUfEtOUZ-4">
          <mxGeometry width="50" height="50" relative="1" as="geometry">
            <mxPoint x="390" y="430" as="sourcePoint" />
            <mxPoint x="440" y="380" as="targetPoint" />
          </mxGeometry>
        </mxCell>
        <mxCell id="c__RsiPMxk6akUfEtOUZ-13" value="" style="endArrow=classic;html=1;rounded=0;exitX=0;exitY=0.5;exitDx=0;exitDy=0;entryX=1;entryY=0.5;entryDx=0;entryDy=0;" edge="1" parent="1" source="c__RsiPMxk6akUfEtOUZ-10" target="c__RsiPMxk6akUfEtOUZ-4">
          <mxGeometry width="50" height="50" relative="1" as="geometry">
            <mxPoint x="390" y="430" as="sourcePoint" />
            <mxPoint x="440" y="380" as="targetPoint" />
          </mxGeometry>
        </mxCell>
        <mxCell id="c__RsiPMxk6akUfEtOUZ-14" value="" style="endArrow=classic;html=1;rounded=0;exitX=0;exitY=0.5;exitDx=0;exitDy=0;" edge="1" parent="1" source="c__RsiPMxk6akUfEtOUZ-11" target="c__RsiPMxk6akUfEtOUZ-4">
          <mxGeometry width="50" height="50" relative="1" as="geometry">
            <mxPoint x="390" y="430" as="sourcePoint" />
            <mxPoint x="440" y="380" as="targetPoint" />
          </mxGeometry>
        </mxCell>
        <mxCell id="c__RsiPMxk6akUfEtOUZ-15" value="" style="endArrow=classic;html=1;rounded=0;exitX=1;exitY=0.3333333333333333;exitDx=0;exitDy=0;exitPerimeter=0;entryX=0;entryY=0.5;entryDx=0;entryDy=0;" edge="1" parent="1" source="c__RsiPMxk6akUfEtOUZ-1" target="c__RsiPMxk6akUfEtOUZ-5">
          <mxGeometry width="50" height="50" relative="1" as="geometry">
            <mxPoint x="390" y="430" as="sourcePoint" />
            <mxPoint x="440" y="380" as="targetPoint" />
          </mxGeometry>
        </mxCell>
        <mxCell id="c__RsiPMxk6akUfEtOUZ-16" value="" style="endArrow=classic;html=1;rounded=0;entryX=0;entryY=0.5;entryDx=0;entryDy=0;" edge="1" parent="1" source="c__RsiPMxk6akUfEtOUZ-1" target="c__RsiPMxk6akUfEtOUZ-6">
          <mxGeometry width="50" height="50" relative="1" as="geometry">
            <mxPoint x="390" y="430" as="sourcePoint" />
            <mxPoint x="440" y="380" as="targetPoint" />
          </mxGeometry>
        </mxCell>
        <mxCell id="c__RsiPMxk6akUfEtOUZ-18" value="" style="endArrow=classic;html=1;rounded=0;entryX=0.5;entryY=0;entryDx=0;entryDy=0;" edge="1" parent="1" source="c__RsiPMxk6akUfEtOUZ-1" target="c__RsiPMxk6akUfEtOUZ-9">
          <mxGeometry width="50" height="50" relative="1" as="geometry">
            <mxPoint x="390" y="430" as="sourcePoint" />
            <mxPoint x="98" y="530" as="targetPoint" />
          </mxGeometry>
        </mxCell>
        <mxCell id="c__RsiPMxk6akUfEtOUZ-20" value="Học sinh" style="ellipse;whiteSpace=wrap;html=1;" vertex="1" parent="1">
          <mxGeometry x="452" y="167" width="120" height="80" as="geometry" />
        </mxCell>
        <mxCell id="c__RsiPMxk6akUfEtOUZ-21" value="Điểm danh" style="ellipse;whiteSpace=wrap;html=1;" vertex="1" parent="1">
          <mxGeometry x="452" y="254" width="120" height="80" as="geometry" />
        </mxCell>
        <mxCell id="c__RsiPMxk6akUfEtOUZ-22" value="Thống kê" style="ellipse;whiteSpace=wrap;html=1;" vertex="1" parent="1">
          <mxGeometry x="448" y="474" width="120" height="80" as="geometry" />
        </mxCell>
        <mxCell id="c__RsiPMxk6akUfEtOUZ-23" value="Buổi học" style="ellipse;whiteSpace=wrap;html=1;" vertex="1" parent="1">
          <mxGeometry x="452" y="340" width="120" height="80" as="geometry" />
        </mxCell>
        <mxCell id="c__RsiPMxk6akUfEtOUZ-24" value="" style="endArrow=classic;html=1;rounded=0;entryX=0;entryY=0.5;entryDx=0;entryDy=0;" edge="1" parent="1" target="c__RsiPMxk6akUfEtOUZ-21">
          <mxGeometry width="50" height="50" relative="1" as="geometry">
            <mxPoint x="400" y="343" as="sourcePoint" />
            <mxPoint x="440" y="380" as="targetPoint" />
          </mxGeometry>
        </mxCell>
        <mxCell id="c__RsiPMxk6akUfEtOUZ-26" value="" style="endArrow=classic;html=1;rounded=0;entryX=0;entryY=0.5;entryDx=0;entryDy=0;exitX=0.958;exitY=0.238;exitDx=0;exitDy=0;exitPerimeter=0;" edge="1" parent="1" source="c__RsiPMxk6akUfEtOUZ-6" target="c__RsiPMxk6akUfEtOUZ-20">
          <mxGeometry width="50" height="50" relative="1" as="geometry">
            <mxPoint x="400" y="350" as="sourcePoint" />
            <mxPoint x="440" y="380" as="targetPoint" />
          </mxGeometry>
        </mxCell>
        <mxCell id="c__RsiPMxk6akUfEtOUZ-27" value="" style="endArrow=classic;html=1;rounded=0;exitX=1;exitY=0.663;exitDx=0;exitDy=0;exitPerimeter=0;entryX=0;entryY=0.375;entryDx=0;entryDy=0;entryPerimeter=0;" edge="1" parent="1" source="c__RsiPMxk6akUfEtOUZ-6" target="c__RsiPMxk6akUfEtOUZ-23">
          <mxGeometry width="50" height="50" relative="1" as="geometry">
            <mxPoint x="390" y="430" as="sourcePoint" />
            <mxPoint x="440" y="380" as="targetPoint" />
          </mxGeometry>
        </mxCell>
        <mxCell id="c__RsiPMxk6akUfEtOUZ-28" value="Thêm&lt;div&gt;Sửa&lt;/div&gt;&lt;div&gt;Xóa&lt;/div&gt;" style="ellipse;whiteSpace=wrap;html=1;" vertex="1" parent="1">
          <mxGeometry x="637" y="202" width="120" height="80" as="geometry" />
        </mxCell>
        <mxCell id="c__RsiPMxk6akUfEtOUZ-31" value="Tìm kiếm" style="ellipse;whiteSpace=wrap;html=1;" vertex="1" parent="1">
          <mxGeometry x="637" y="291" width="120" height="80" as="geometry" />
        </mxCell>
        <mxCell id="c__RsiPMxk6akUfEtOUZ-39" value="" style="endArrow=classic;html=1;rounded=0;exitX=0;exitY=0.488;exitDx=0;exitDy=0;exitPerimeter=0;entryX=1;entryY=0.5;entryDx=0;entryDy=0;" edge="1" parent="1" source="c__RsiPMxk6akUfEtOUZ-28" target="c__RsiPMxk6akUfEtOUZ-20">
          <mxGeometry width="50" height="50" relative="1" as="geometry">
            <mxPoint x="387" y="426" as="sourcePoint" />
            <mxPoint x="437" y="376" as="targetPoint" />
          </mxGeometry>
        </mxCell>
        <mxCell id="c__RsiPMxk6akUfEtOUZ-40" value="" style="endArrow=classic;html=1;rounded=0;entryX=0.95;entryY=0.338;entryDx=0;entryDy=0;entryPerimeter=0;exitX=0;exitY=0.5;exitDx=0;exitDy=0;" edge="1" parent="1" source="c__RsiPMxk6akUfEtOUZ-28" target="c__RsiPMxk6akUfEtOUZ-21">
          <mxGeometry width="50" height="50" relative="1" as="geometry">
            <mxPoint x="649" y="284" as="sourcePoint" />
            <mxPoint x="561" y="307" as="targetPoint" />
          </mxGeometry>
        </mxCell>
        <mxCell id="c__RsiPMxk6akUfEtOUZ-42" value="" style="endArrow=classic;html=1;rounded=0;exitX=0;exitY=0.5;exitDx=0;exitDy=0;entryX=1;entryY=0.5;entryDx=0;entryDy=0;" edge="1" parent="1" source="c__RsiPMxk6akUfEtOUZ-28" target="c__RsiPMxk6akUfEtOUZ-23">
          <mxGeometry width="50" height="50" relative="1" as="geometry">
            <mxPoint x="387" y="426" as="sourcePoint" />
            <mxPoint x="437" y="376" as="targetPoint" />
          </mxGeometry>
        </mxCell>
        <mxCell id="c__RsiPMxk6akUfEtOUZ-43" value="" style="endArrow=classic;html=1;rounded=0;exitX=0;exitY=0.5;exitDx=0;exitDy=0;entryX=0.908;entryY=0.825;entryDx=0;entryDy=0;entryPerimeter=0;fillColor=#0050ef;strokeColor=#001DBC;" edge="1" parent="1" source="c__RsiPMxk6akUfEtOUZ-31" target="c__RsiPMxk6akUfEtOUZ-20">
          <mxGeometry width="50" height="50" relative="1" as="geometry">
            <mxPoint x="647" y="419" as="sourcePoint" />
            <mxPoint x="555" y="247" as="targetPoint" />
          </mxGeometry>
        </mxCell>
        <mxCell id="c__RsiPMxk6akUfEtOUZ-44" value="" style="endArrow=classic;html=1;rounded=0;entryX=1;entryY=0.5;entryDx=0;entryDy=0;fillColor=#0050ef;strokeColor=#001DBC;exitX=0;exitY=0.5;exitDx=0;exitDy=0;" edge="1" parent="1" source="c__RsiPMxk6akUfEtOUZ-31" target="c__RsiPMxk6akUfEtOUZ-21">
          <mxGeometry width="50" height="50" relative="1" as="geometry">
            <mxPoint x="649" y="399" as="sourcePoint" />
            <mxPoint x="437" y="376" as="targetPoint" />
          </mxGeometry>
        </mxCell>
        <mxCell id="c__RsiPMxk6akUfEtOUZ-46" value="" style="endArrow=classic;html=1;rounded=0;exitX=0;exitY=0.5;exitDx=0;exitDy=0;entryX=0.975;entryY=0.7;entryDx=0;entryDy=0;entryPerimeter=0;fillColor=#0050ef;strokeColor=#001DBC;" edge="1" parent="1" source="c__RsiPMxk6akUfEtOUZ-31" target="c__RsiPMxk6akUfEtOUZ-23">
          <mxGeometry width="50" height="50" relative="1" as="geometry">
            <mxPoint x="387" y="426" as="sourcePoint" />
            <mxPoint x="437" y="376" as="targetPoint" />
          </mxGeometry>
        </mxCell>
        <mxCell id="c__RsiPMxk6akUfEtOUZ-47" value="" style="endArrow=classic;html=1;rounded=0;exitX=1;exitY=1;exitDx=0;exitDy=0;entryX=0.008;entryY=0.388;entryDx=0;entryDy=0;entryPerimeter=0;" edge="1" parent="1" source="c__RsiPMxk6akUfEtOUZ-6" target="c__RsiPMxk6akUfEtOUZ-22">
          <mxGeometry width="50" height="50" relative="1" as="geometry">
            <mxPoint x="387" y="426" as="sourcePoint" />
            <mxPoint x="437" y="376" as="targetPoint" />
          </mxGeometry>
        </mxCell>
        <mxCell id="c__RsiPMxk6akUfEtOUZ-48" value="Số hs" style="ellipse;whiteSpace=wrap;html=1;" vertex="1" parent="1">
          <mxGeometry x="586" y="402" width="120" height="80" as="geometry" />
        </mxCell>
        <mxCell id="c__RsiPMxk6akUfEtOUZ-49" value="Số bạn dd" style="ellipse;whiteSpace=wrap;html=1;" vertex="1" parent="1">
          <mxGeometry x="605" y="509" width="120" height="80" as="geometry" />
        </mxCell>
        <mxCell id="c__RsiPMxk6akUfEtOUZ-50" value="Số hs đi muộn" style="ellipse;whiteSpace=wrap;html=1;" vertex="1" parent="1">
          <mxGeometry x="570" y="607" width="120" height="80" as="geometry" />
        </mxCell>
        <mxCell id="c__RsiPMxk6akUfEtOUZ-51" value="Số hs vắng" style="ellipse;whiteSpace=wrap;html=1;" vertex="1" parent="1">
          <mxGeometry x="417" y="589" width="120" height="80" as="geometry" />
        </mxCell>
        <mxCell id="c__RsiPMxk6akUfEtOUZ-52" value="" style="endArrow=classic;html=1;rounded=0;entryX=1;entryY=0;entryDx=0;entryDy=0;" edge="1" parent="1" target="c__RsiPMxk6akUfEtOUZ-22">
          <mxGeometry width="50" height="50" relative="1" as="geometry">
            <mxPoint x="585" y="446" as="sourcePoint" />
            <mxPoint x="437" y="376" as="targetPoint" />
          </mxGeometry>
        </mxCell>
        <mxCell id="c__RsiPMxk6akUfEtOUZ-53" value="" style="endArrow=classic;html=1;rounded=0;entryX=0.992;entryY=0.588;entryDx=0;entryDy=0;entryPerimeter=0;" edge="1" parent="1" target="c__RsiPMxk6akUfEtOUZ-22">
          <mxGeometry width="50" height="50" relative="1" as="geometry">
            <mxPoint x="603" y="552" as="sourcePoint" />
            <mxPoint x="437" y="376" as="targetPoint" />
          </mxGeometry>
        </mxCell>
        <mxCell id="c__RsiPMxk6akUfEtOUZ-54" value="" style="endArrow=classic;html=1;rounded=0;" edge="1" parent="1" source="c__RsiPMxk6akUfEtOUZ-50">
          <mxGeometry width="50" height="50" relative="1" as="geometry">
            <mxPoint x="695.5735931288073" y="786.7157287525381" as="sourcePoint" />
            <mxPoint x="545" y="544" as="targetPoint" />
          </mxGeometry>
        </mxCell>
        <mxCell id="c__RsiPMxk6akUfEtOUZ-55" value="" style="endArrow=classic;html=1;rounded=0;entryX=0.5;entryY=1;entryDx=0;entryDy=0;" edge="1" parent="1" source="c__RsiPMxk6akUfEtOUZ-51" target="c__RsiPMxk6akUfEtOUZ-22">
          <mxGeometry width="50" height="50" relative="1" as="geometry">
            <mxPoint x="387" y="426" as="sourcePoint" />
            <mxPoint x="437" y="376" as="targetPoint" />
          </mxGeometry>
        </mxCell>
        <mxCell id="c__RsiPMxk6akUfEtOUZ-56" value="" style="endArrow=classic;html=1;rounded=0;exitX=1;exitY=1;exitDx=0;exitDy=0;exitPerimeter=0;" edge="1" parent="1" source="c__RsiPMxk6akUfEtOUZ-1" target="c__RsiPMxk6akUfEtOUZ-7">
          <mxGeometry width="50" height="50" relative="1" as="geometry">
            <mxPoint x="387" y="426" as="sourcePoint" />
            <mxPoint x="260" y="593" as="targetPoint" />
          </mxGeometry>
        </mxCell>
      </root>
    </mxGraphModel>
  </diagram>
</mxfile>
